<?xml version="1.0" standalone="no"?>
<!DOCTYPE svg PUBLIC "-//W3C//DTD SVG 20010904//EN"
 "http://www.w3.org/TR/2001/REC-SVG-20010904/DTD/svg10.dtd">
<svg version="1.0" xmlns="http://www.w3.org/2000/svg"
 width="4366.000000pt" height="4403.000000pt" viewBox="0 0 4366.000000 4403.000000"
 preserveAspectRatio="xMidYMid meet">

<g transform="translate(0.000000,4403.000000) scale(0.100000,-0.100000)"
fill="#000000" stroke="none">
<path d="M10 22010 l0 -22010 21820 0 21820 0 0 22010 0 22010 -21820 0
-21820 0 0 -22010z m20845 11053 c399 -108 682 -404 773 -808 13 -60 16 -195
19 -928 3 -738 6 -858 18 -853 65 24 283 27 2365 24 l2185 -3 100 -27 c331
-91 592 -329 712 -648 68 -183 63 213 63 -4797 l0 -4535 -21 -101 c-40 -200
-126 -362 -269 -511 -103 -107 -178 -162 -301 -221 -112 -52 -212 -81 -334
-95 -100 -11 -2809 -14 -2988 -3 l-107 6 0 146 c0 377 -52 884 -136 1321 -232
1214 -760 2354 -1539 3325 -998 1242 -2361 2148 -3874 2574 -597 168 -1157
256 -1817 283 l-281 11 -6 171 c-11 282 -8 4671 3 4766 19 168 78 332 166 467
59 89 199 229 291 290 125 83 290 146 438 166 17 2 1027 4 2245 3 l2215 -1 80
-22z m-4850 -7268 c222 -21 473 -59 677 -100 1740 -356 3242 -1435 4148 -2980
113 -194 304 -585 390 -799 283 -707 450 -1526 450 -2208 l0 -148 -273 0
c-151 0 -409 3 -575 7 l-302 6 0 116 c0 236 -36 579 -90 859 -166 852 -536
1629 -1099 2302 -132 158 -409 439 -571 579 -566 489 -1213 841 -1915 1042
-416 118 -811 181 -1232 196 l-193 6 0 575 0 575 213 -6 c116 -3 284 -13 372
-22z m-255 -2535 c732 -66 1434 -352 2012 -822 131 -106 380 -352 490 -483
360 -430 616 -932 753 -1475 63 -249 95 -479 111 -778 l7 -132 -579 2 -579 3
-6 140 c-28 626 -303 1233 -761 1681 -136 133 -233 211 -393 316 -364 240
-801 380 -1260 406 l-130 7 -3 573 -2 572 112 0 c62 0 165 -5 228 -10z m554
-2370 c231 -59 425 -238 502 -465 36 -107 45 -280 19 -388 -49 -208 -189 -383
-380 -477 -111 -55 -189 -73 -315 -73 -129 0 -203 18 -329 79 -76 38 -108 61
-176 129 -68 68 -91 100 -129 176 -62 126 -80 200 -79 329 1 222 86 402 263
553 159 135 413 191 624 137z m-9416 -3771 c396 -43 734 -194 954 -427 145
-154 223 -309 249 -498 21 -145 -18 -263 -118 -363 -82 -81 -145 -104 -273
-99 -167 7 -222 56 -370 328 -142 262 -274 386 -463 434 -152 39 -382 44 -538
11 -204 -43 -371 -155 -448 -300 -24 -45 -26 -60 -26 -160 0 -97 3 -115 24
-155 48 -90 112 -151 231 -217 120 -67 195 -91 636 -203 624 -159 900 -265
1126 -432 200 -147 335 -364 384 -615 27 -135 24 -387 -5 -522 -81 -381 -305
-664 -668 -849 -298 -152 -606 -211 -1038 -199 -359 10 -598 63 -845 187 -406
204 -710 637 -710 1012 0 136 22 192 110 280 58 59 75 69 139 88 132 40 259
17 349 -65 60 -53 103 -124 169 -276 131 -300 218 -411 404 -513 231 -126 659
-125 924 3 255 124 389 339 356 575 -19 134 -57 204 -162 300 -126 113 -272
169 -749 287 -642 157 -929 279 -1154 490 -185 172 -281 374 -306 641 -19 201
14 398 96 567 137 287 384 487 737 600 152 49 254 69 482 95 73 8 415 5 503
-5z m17314 -18 c74 -29 159 -106 193 -175 60 -123 58 -102 62 -828 l4 -668
899 0 899 0 3 668 c4 637 5 670 24 733 39 128 113 216 222 267 51 24 68 27
172 27 108 0 119 -2 181 -31 121 -58 189 -144 226 -290 17 -65 18 -177 18
-1809 0 -1871 2 -1793 -51 -1913 -33 -75 -121 -163 -197 -198 -57 -27 -71 -29
-177 -29 -106 0 -120 2 -177 29 -69 31 -148 107 -181 172 -57 111 -56 95 -59
927 l-4 767 -899 0 -900 0 0 -727 c-1 -812 -2 -833 -64 -959 -43 -85 -94 -134
-185 -178 -62 -29 -73 -31 -181 -31 -104 0 -121 3 -172 27 -113 53 -189 152
-225 294 -17 65 -18 177 -18 1809 0 1291 3 1754 12 1795 38 179 126 286 278
337 62 20 226 12 297 -16z m-3459 -109 c82 -41 158 -120 186 -197 30 -80 41
-233 41 -577 l0 -306 203 -4 c179 -3 207 -6 247 -24 108 -50 163 -134 163
-249 0 -191 -145 -275 -479 -275 l-134 0 0 -807 c0 -489 4 -836 10 -878 15
-97 53 -163 116 -195 42 -22 60 -25 139 -24 49 1 124 9 165 18 130 29 219 32
271 9 105 -47 159 -131 159 -247 0 -50 -7 -85 -21 -116 -79 -176 -342 -270
-752 -270 -325 0 -516 58 -657 200 -106 106 -153 217 -187 447 -14 91 -17 243
-20 984 l-4 877 -112 4 c-126 5 -187 25 -245 81 -58 56 -77 102 -77 192 0 123
43 188 160 241 50 23 77 28 167 32 l108 5 0 296 c0 543 23 645 163 748 77 57
136 74 238 70 73 -3 97 -8 152 -35z m-11363 -1026 c67 -24 141 -84 178 -146
42 -71 52 -107 59 -210 l5 -85 87 88 c165 170 344 280 546 334 92 24 116 27
295 27 213 1 260 -7 407 -64 148 -57 298 -179 393 -320 23 -36 44 -66 45 -68
1 -1 44 41 96 94 174 177 335 277 535 331 90 24 116 27 284 27 206 1 295 -12
430 -65 124 -47 198 -97 300 -199 145 -144 198 -261 237 -520 16 -103 18 -211
18 -1045 0 -858 -1 -935 -18 -994 -36 -131 -106 -218 -215 -269 -51 -24 -69
-27 -167 -27 -105 0 -114 2 -177 33 -103 50 -168 133 -205 259 -15 52 -18 155
-24 948 -4 541 -11 910 -17 940 -34 168 -119 278 -245 321 -77 27 -223 24
-307 -5 -179 -62 -325 -217 -373 -396 -44 -164 -50 -267 -57 -1040 -5 -656 -8
-746 -23 -790 -40 -119 -110 -200 -213 -247 -41 -20 -66 -23 -159 -23 -100 0
-116 3 -172 29 -108 50 -183 151 -212 284 -7 36 -11 252 -11 675 -1 712 -12
1118 -35 1222 -50 230 -189 330 -432 311 -155 -13 -252 -49 -337 -127 -92 -84
-144 -208 -188 -445 -20 -113 -22 -155 -28 -864 -6 -680 -8 -750 -24 -800 -30
-90 -61 -143 -115 -193 -79 -74 -125 -91 -256 -91 -99 -1 -116 2 -167 26 -118
55 -193 157 -223 303 -14 71 -15 210 -13 1285 l3 1205 23 67 c40 118 127 202
241 235 56 16 169 10 231 -11z m6418 -1 c310 -49 511 -138 649 -289 79 -86
124 -167 166 -294 69 -209 70 -222 77 -982 8 -765 2 -698 88 -995 38 -130 47
-175 47 -240 0 -69 -4 -86 -27 -127 -64 -107 -182 -179 -310 -186 -70 -4 -83
-2 -143 26 -80 38 -182 138 -276 272 -35 51 -69 99 -75 108 -10 13 -22 7 -95
-45 -243 -174 -475 -283 -712 -335 -88 -19 -132 -22 -317 -22 -202 0 -221 2
-315 27 -273 74 -485 238 -594 459 -72 148 -85 204 -86 378 0 123 4 157 23
224 64 220 211 396 423 506 138 71 203 89 641 180 350 73 766 171 917 216 l54
16 -7 77 c-20 224 -96 385 -209 443 -174 88 -571 88 -762 -1 -121 -57 -217
-148 -310 -296 -21 -33 -62 -92 -91 -132 -63 -85 -90 -97 -219 -98 -77 0 -98
4 -147 27 -75 35 -142 104 -163 169 -23 68 -16 200 14 289 47 137 153 277 285
376 74 56 271 153 381 189 90 29 251 61 370 75 127 14 602 5 723 -15z m16092
1 c67 -24 141 -84 178 -146 42 -71 52 -107 59 -210 l5 -85 87 88 c165 170 344
280 546 334 92 24 116 27 295 27 213 1 260 -7 407 -64 148 -57 298 -179 393
-320 23 -36 44 -66 45 -68 1 -1 44 41 96 94 174 177 335 277 535 331 90 24
116 27 284 27 206 1 295 -12 430 -65 124 -47 198 -97 300 -199 145 -144 198
-261 237 -520 16 -103 18 -211 18 -1045 0 -858 -1 -935 -18 -994 -36 -131
-106 -218 -215 -269 -51 -24 -69 -27 -167 -27 -105 0 -114 2 -177 33 -103 50
-168 133 -205 259 -15 52 -18 155 -24 948 -4 541 -11 910 -17 940 -34 168
-119 278 -245 321 -77 27 -223 24 -307 -5 -179 -62 -325 -217 -373 -396 -44
-164 -50 -267 -57 -1040 -5 -656 -8 -746 -23 -790 -40 -119 -110 -200 -213
-247 -41 -20 -66 -23 -159 -23 -100 0 -116 3 -172 29 -108 50 -183 151 -212
284 -7 36 -11 252 -11 675 -1 712 -12 1118 -35 1222 -50 230 -189 330 -432
311 -155 -13 -252 -49 -337 -127 -92 -84 -144 -208 -188 -445 -20 -113 -22
-155 -28 -864 -6 -680 -8 -750 -24 -800 -30 -90 -61 -143 -115 -193 -79 -74
-125 -91 -256 -91 -99 -1 -116 2 -167 26 -118 55 -193 157 -223 303 -14 71
-15 210 -13 1285 l3 1205 23 67 c40 118 127 202 241 235 56 16 169 10 231 -11z
m6375 -6 c424 -91 755 -339 929 -695 111 -227 160 -466 136 -659 -23 -187 -81
-266 -237 -323 -139 -50 -192 -53 -1081 -53 l-823 0 5 -42 c3 -24 8 -72 11
-106 19 -203 143 -447 284 -559 69 -54 195 -117 281 -140 95 -25 298 -22 405
6 157 42 301 129 480 291 258 233 253 230 371 230 156 0 251 -84 262 -230 9
-131 -66 -280 -217 -431 -189 -190 -448 -318 -761 -375 -116 -22 -430 -30
-572 -15 -373 39 -674 170 -898 390 -263 259 -398 576 -432 1014 -32 417 60
822 256 1122 68 104 204 248 307 325 178 133 424 229 679 266 145 20 485 12
615 -16z m-20297 5 c125 -38 200 -146 229 -337 l17 -108 29 48 c17 26 58 83
92 127 174 224 318 293 584 282 157 -6 249 -30 397 -102 93 -45 120 -64 172
-119 74 -80 97 -142 90 -245 -6 -83 -40 -152 -103 -210 -103 -95 -184 -105
-370 -47 -174 54 -290 72 -386 59 -269 -36 -398 -242 -460 -738 -7 -52 -15
-363 -19 -730 -8 -691 -8 -692 -64 -803 -30 -59 -111 -136 -173 -165 -40 -18
-66 -21 -158 -22 -101 0 -114 2 -165 28 -109 56 -177 150 -206 285 -20 98 -20
2358 0 2474 41 228 157 337 362 338 44 0 103 -7 132 -15z m11552 4 c642 -79
1096 -467 1255 -1071 45 -174 58 -301 52 -538 -4 -180 -9 -235 -31 -336 -124
-584 -499 -982 -1058 -1125 -239 -61 -568 -66 -826 -13 -415 85 -774 354 -966
724 -141 271 -205 611 -178 949 34 426 172 753 426 1006 224 223 515 359 866
404 95 12 363 13 460 0z"/>
<path d="M16415 32193 c-32 -8 -74 -42 -90 -73 -13 -25 -15 -267 -15 -1915 l0
-1885 30 0 c90 0 553 -70 833 -126 1239 -246 2467 -789 3465 -1530 l112 -84 0
2756 c0 3037 5 2787 -62 2836 l-33 23 -2110 1 c-1160 1 -2119 -1 -2130 -3z
m1855 -1333 l0 -610 -607 2 -608 3 -3 595 c-1 327 0 601 3 608 3 9 135 12 610
12 l605 0 0 -610z m1760 0 l0 -610 -605 0 -605 0 0 610 0 610 605 0 605 0 0
-610z m0 -1600 l0 -610 -605 0 -605 0 0 610 0 610 605 0 605 0 0 -610z"/>
<path d="M21806 29569 c-20 -17 -40 -47 -46 -67 -6 -25 -10 -674 -10 -1925 l0
-1888 98 -103 c1185 -1246 2000 -2910 2266 -4626 22 -141 66 -477 66 -502 0
-4 430 -8 955 -8 1053 0 990 -4 1037 62 l23 33 3 4459 c1 3002 -1 4471 -8
4496 -6 22 -25 51 -45 69 l-36 31 -2134 0 -2134 0 -35 -31z m1832 -1191 l2
-608 -610 0 -610 0 0 610 0 610 608 -2 607 -3 3 -607z m1760 0 l2 -608 -610 0
-610 0 0 610 0 610 608 -2 607 -3 3 -607z m0 -1600 l2 -608 -610 0 -610 0 0
610 0 610 608 -2 607 -3 3 -607z"/>
<path d="M15795 14354 c-60 -19 -261 -67 -445 -109 -185 -41 -361 -83 -392
-94 -118 -41 -230 -128 -276 -215 -25 -46 -27 -61 -27 -161 0 -105 2 -114 33
-177 82 -166 267 -259 487 -244 273 19 512 143 634 330 79 121 110 259 118
524 5 152 4 182 -8 181 -8 -1 -63 -16 -124 -35z"/>
<path d="M37785 15440 c-82 -12 -136 -30 -205 -66 -205 -107 -335 -328 -378
-642 l-9 -62 697 0 696 0 -8 78 c-10 94 -38 210 -71 292 -118 290 -402 448
-722 400z"/>
<path d="M29179 15400 c-299 -47 -507 -260 -595 -606 -68 -272 -54 -630 36
-876 43 -119 103 -213 189 -299 138 -138 277 -193 486 -193 182 0 316 45 446
148 227 179 347 562 310 987 -40 447 -240 739 -566 824 -75 19 -231 27 -306
15z"/>
</g>
</svg>
